<svg version="1" xmlns="http://www.w3.org/2000/svg" width="1333.333" height="1333.333" viewBox="0 0 1000.000000 1000.000000"><path d="M473.8 16c-14.3 1.7-28.4 6.8-35.1 12.8-8.1 7.4-10 18.3-5.1 29.7 4.7 11 6.5 17.9 7.1 27.5 1.4 23.7-9.1 40.4-26.7 42.4-8.8.9-29.7 5.2-46.7 9.5-66.4 16.7-122.8 47.4-200.8 109.1-30.1 23.8-43.7 32.5-59 37.5-7.9 2.6-20.7 9.3-24.2 12.7-3.8 3.7-6.3 8.6-6.3 12.3 0 3.7 3.5 9.6 7 12l3 2-3 2.3c-11.9 9.3-7.5 20.5 13.5 33.7 11.6 7.3 16 10.3 18.7 12.8 7.6 7.1 11.6 22.8 21.7 85.7 1.7 10.2 3.7 22.5 4.5 27.5.9 4.9 2.7 16.9 4.1 26.5 1.4 9.6 3.2 21.3 4 26 .8 4.7 1.9 11.9 2.4 16 .6 4.1 2 13.5 3.1 20.7 1.1 7.3 2.9 19 3.9 26 6.7 43.6 13.5 79 17.7 92.1 4.1 12.4 9.1 20.9 16.9 28.6 8.7 8.6 14.9 12.8 29.3 20 10 5 11.5 6.1 12.9 9.4 1.9 4.6 6.7 24.2 12.7 51.7 9.1 41.8 18.4 70.1 32 97.5 9.3 18.7 18.5 30.5 33.6 43 28 23.1 71.7 38.6 130.5 46.2 14.5 1.8 21.9 2.2 50 2.2 28.2-.1 35.6-.4 50.5-2.3 29.9-3.8 50-8.2 75.9-16.7 37.9-12.5 65.9-30.6 82.7-53.4 18-24.3 34.8-70.9 44.4-123 6-33 10.5-52.4 12.7-55.5.5-.6 5.1-3.3 10.3-5.9 25.1-12.9 38.6-27.2 45-47.7 5-16.6 11.3-55.2 18.5-114.9 3.2-26.6 4.7-38.1 6-47.5.8-5.5 1.9-14.1 2.5-19 .5-5 2.1-17.6 3.5-28l4-30c3.7-28.8 8.5-57.1 11.4-67.4 3.7-13.4 6.8-17.1 22.6-27.5 12.6-8.4 17.2-12.3 20.1-17.1 4.2-7.2 2.6-15.8-3.6-19-1.7-.9-3-1.8-3-2.1 0-.3 1.4-1.7 3-3.1 8.6-7.2 7.8-17.6-1.9-24.7-5.6-4.1-12.6-7.4-25.2-12-16.6-5.9-24.5-10.7-54.9-33.4-37-27.6-46.8-34.4-68.5-47.9-17.8-11.2-49.6-28.2-64.5-34.7-3.6-1.5-8.4-3.6-10.7-4.7-2.4-1-4.6-1.9-5-1.9-.4 0-3.2-1-6.3-2.1-3-1.2-7.1-2.7-9-3.5-3.8-1.4-16.6-5.4-19-5.9l-16-4c-8-2-15.8-3.9-17.5-4.1-1.6-.2-6.4-1-10.5-1.9-8.2-1.6-9.2-1.8-22.5-3.5-10.1-1.4-12.2-2.2-18.3-7.5-5-4.4-8.3-10.4-10.6-19.6-3-12.2-1.2-27.1 5-41.9 6.1-14.6 1.6-27.9-11.6-34.5-5-2.5-17.1-6.3-22.2-7-7.4-1-31.8-1.3-39-.5zm27.7 30.1c12 1.4 15.9 2.6 14.9 4.8-6.1 14.1-8.2 39.6-4.4 55.7 3.3 14.4 9.1 25.3 18.3 34.2 10.5 10.1 18 13.5 35.7 16.2 54.4 8.3 86.7 18.2 127.8 39 34.6 17.4 59.8 33.9 112.2 73.1 25.3 18.8 42.2 28.9 57 33.8l6.5 2.1v7.8c0 4.2.3 8.8.7 10.2.6 2.2.1 2.9-5 6.2-3.2 2-8.9 6.4-12.8 9.7-16.4 13.8-22 33.9-33.4 121.6-4.8 37.1-6.1 46.8-8 62-5.2 42.2-6.2 50-8.1 64-8.1 61.6-12.3 85.9-16.9 96.2-4.1 9.3-13.9 17.7-30.2 25.9-12.8 6.4-16.5 9.5-20.6 17.1-5.1 9.7-8.9 25-16.7 67.3-8.6 46.4-23.1 87.3-38.5 107.9-21.6 29-68.2 48.7-136.5 57.8-26.3 3.5-67.4 3.6-93 .4-67.9-8.6-111.5-27.5-132.7-57.6-15.4-21.8-30.1-63.3-40.8-115-3.3-16.1-8.6-36.9-11.4-45.3-4.9-14.2-7.8-17.1-26.7-26.5-14.6-7.2-25.2-15.5-28.9-22.7-4.8-9.3-9.6-31.5-16.9-77-2.5-15.2-3.6-22.5-16-104.8-11.8-78-18.1-112.6-23.6-130.9-5.7-18.9-13.6-29.3-29.7-39.3-6.5-4.1-8.6-5.9-8.1-7 .4-.8.7-5.5.8-10.3l.1-8.9 9-3.7c17.9-7.4 29-14.7 61.9-40.6 63.4-50 111.4-78.1 162-95 18.3-6 47.9-12.8 72.3-16.6 10.5-1.6 22-7.5 29.7-15.3 7.3-7.4 11.7-14.8 15.8-26.3 2.9-8 3.2-10.1 3.5-23.6.4-17.2-1.3-27.2-7.2-41.8-.8-1.8 5.2-3.5 16.9-4.8 10.2-1.2 11.1-1.2 21 0z"/></svg>